<svg xmlns="http://www.w3.org/2000/svg" id="Vrstva_1" x="0" y="0" version="1.1" viewBox="0 0 406.3 391.7" xml:space="preserve"><path d="M370.5 139.6c0-1.7-.8-3.2-2.2-4.2L217.4 28c-6.9-5-18.1-5.7-26 0l-151 107.4c-1.4 1-2.2 2.6-2.2 4.3l.2 40.6c0 2.9 2.3 5.2 5.2 5.2h36.1c2.9 0 5.2-2.3 5.2-5.2v-18.5l119.4-85 119.4 84.3v19.2c0 2.9 2.3 5.2 5.2 5.2h36.3c2.9 0 5.2-2.3 5.2-5.2l.1-40.7zm-36.2 35.5v-16.7c0-1.7-.8-3.3-2.2-4.2l-124.6-88c-.9-.6-1.9-.9-3-.9s-2.1.3-3 1L76.8 154.9c-1.4 1-2.2 2.5-2.2 4.2V175H48.8l-.2-32.8L197.5 36.4c3.4-2.5 9.5-3.1 13.9 0l148.8 105.9v32.8h-25.9zM321.1 28.5l-46.1.1c-6.9 0-12.4 5.4-12.9 12.1l10.2 7.2v-6.2c0-1.5 1.2-2.7 2.7-2.7l46.1-.1c1.5 0 2.7 1.2 2.7 2.7v43l10.3 7.3c0-.2.1-.4.1-.7V41.6c0-7.2-5.8-13.1-13.1-13.1zM323.9 200.3v142.8c0 1-.5 1.6-.8 2-.5.6-1.3.9-2.1.9H88c-1.6 0-2.9-1.4-2.9-2.9V200.3H74.8V343c0 7.4 5.8 13.3 13.2 13.3h233c3.6 0 7-1.4 9.5-4 2.5-2.5 3.9-5.8 3.8-9.3V200.3h-10.4z" class="st0" fill="#313131"/><path d="M241.3 182.4h-73.8c-8.3 0-15 6.7-15 15v73.8c0 8.3 6.8 15 15 15h73.8c8.3 0 15-6.7 15-15v-73.8c.1-8.3-6.7-15-15-15zm4.7 88.8c0 2.6-2.1 4.6-4.6 4.6h-73.8c-2.6 0-4.6-2.1-4.6-4.6v-73.8c0-2.5 2.1-4.6 4.6-4.6h73.8c2.6 0 4.6 2.1 4.6 4.6v73.8z" class="st0" fill="#313131"/></svg>